<svg xmlns="http://www.w3.org/2000/svg" width="333.12" height="79.04" viewBox="0 0 333.12 79.04">
  <path id="Path_1" data-name="Path 1" d="M5.92-5.92c0,3.84,2.4,6.4,5.76,6.4s5.76-2.56,5.76-6.4V-32.48h3.6c3.36,0,5.84-1.44,5.84-5.04,0-3.68-2.4-5.04-5.84-5.04h-3.6v-4.72c0-4.24,1.92-4.24,3.84-4.24,3.2,0,4.72-1.52,4.72-4.88,0-4-3.92-5.2-8-5.2-7.04,0-12.08,4.64-12.08,13.12v5.92H3.36a4.921,4.921,0,0,0-5.04,5.04,4.665,4.665,0,0,0,5.04,5.04H5.92Zm60.4-29.6c0-2.96,0-7.52-5.52-7.52a5.47,5.47,0,0,0-5.52,4.8,13.164,13.164,0,0,0-10.96-5.28c-10.56,0-19.04,9.68-19.04,22.32C25.28-8.24,33.52.96,44.32.96A13.784,13.784,0,0,0,55.28-4.4C56.08-1.36,57.44.48,60.8.48c5.52,0,5.52-4.56,5.52-7.52ZM36.8-21.2c0-5.52,2.8-11.76,9.12-11.76,6.08,0,8.88,6.24,8.88,11.76S51.92-9.6,45.92-9.6C39.68-9.6,36.8-15.68,36.8-21.2ZM72.72-5.92c0,3.84,2.4,6.4,5.76,6.4s5.76-2.56,5.76-6.4V-55.2c0-3.84-2.4-6.4-5.76-6.4s-5.76,2.56-5.76,6.4Zm17.76,0c0,3.84,2.4,6.4,5.76,6.4S102-2.08,102-5.92V-55.2c0-3.84-2.4-6.4-5.76-6.4s-5.76,2.56-5.76,6.4Zm57.28-29.6c0-2.96,0-7.52-5.52-7.52a5.47,5.47,0,0,0-5.52,4.8,13.164,13.164,0,0,0-10.96-5.28c-10.56,0-19.04,9.68-19.04,22.32,0,12.96,8.24,22.16,19.04,22.16A13.784,13.784,0,0,0,136.72-4.4c.8,3.04,2.16,4.88,5.52,4.88,5.52,0,5.52-4.56,5.52-7.52ZM118.24-21.2c0-5.52,2.8-11.76,9.12-11.76,6.08,0,8.88,6.24,8.88,11.76s-2.88,11.6-8.88,11.6C121.12-9.6,118.24-15.68,118.24-21.2Zm65.04-14c0-5.68-8.72-8.32-14.4-8.32-9.12,0-15.6,5.44-15.6,13.44,0,13.2,20,12.4,20,17.68,0,2.16-1.04,3.28-4.56,3.28-5.44,0-7.44-3.92-11.92-3.92-3.2,0-4.96,3.36-4.96,5.12C151.84-3.2,159.68.24,166,.8l-1.28,1.84c-.48.64-1.76,2.48-1.76,3.2,0,1.84,1.36,1.68,2.72,1.84,1.36,0,2.72.08,2.72,2.24,0,1.92-1.2,2.32-2.64,2.24s-3.04-.8-3.84-.8A1.937,1.937,0,0,0,160,13.44c0,3.52,4.88,4,7.2,4,3.92,0,8.88-2.32,8.88-7.52a5.73,5.73,0,0,0-6-6.08c-.56,0-1.2.24-1.76.24L170.8.8c8.24-1.04,13.52-6.4,13.52-13.36,0-13.12-20-12.32-20-17.68,0-2.24,1.84-3.2,3.92-3.2,3.76,0,8.16,3.36,10.32,3.36A4.976,4.976,0,0,0,183.28-35.2Zm44.48-.32c0-2.96,0-7.52-5.52-7.52a5.47,5.47,0,0,0-5.52,4.8,13.164,13.164,0,0,0-10.96-5.28c-10.56,0-19.04,9.68-19.04,22.32,0,12.96,8.24,22.16,19.04,22.16A13.784,13.784,0,0,0,216.72-4.4c.8,3.04,2.16,4.88,5.52,4.88,5.52,0,5.52-4.56,5.52-7.52ZM198.24-21.2c0-5.52,2.8-11.76,9.12-11.76,6.08,0,8.88,6.24,8.88,11.76s-2.88,11.6-8.88,11.6C201.12-9.6,198.24-15.68,198.24-21.2ZM234.16-5.92c0,3.84,2.4,6.4,5.76,6.4s5.76-2.56,5.76-6.4V-55.2c0-3.84-2.4-6.4-5.76-6.4s-5.76,2.56-5.76,6.4Zm17.76,0c0,3.84,2.4,6.4,5.76,6.4s5.76-2.56,5.76-6.4V-36.64c0-3.84-2.4-6.4-5.76-6.4s-5.76,2.56-5.76,6.4Zm17.92,0c0,3.84,2.4,6.4,5.76,6.4s5.76-2.56,5.76-6.4V-26c0-4.64,2.08-7.92,6.8-7.92,4.16,0,6.72,3.28,6.72,7.92V-5.92c0,3.84,2.4,6.4,5.76,6.4s5.76-2.56,5.76-6.4V-26c0-4.64,2.56-7.92,6.8-7.92,4.16,0,6.72,3.28,6.72,7.92V-5.92c0,3.84,2.4,6.4,5.76,6.4s5.76-2.56,5.76-6.4V-28c0-10.08-6.4-15.52-15.76-15.52a17.353,17.353,0,0,0-12.16,5.84,14.7,14.7,0,0,0-11.92-5.84,14.3,14.3,0,0,0-10.72,4.8c-.4-2.72-2.32-4.32-5.28-4.32-3.36,0-5.76,2.56-5.76,6.4Z" transform="translate(1.68 61.6)" fill="#fff"/>
</svg>
